<mxfile host="65bd71144e">
    <diagram id="3ZeJw6ZFvWn8KXxI9I4r" name="Page-1">
        <mxGraphModel dx="621" dy="599" grid="1" gridSize="10" guides="1" tooltips="1" connect="1" arrows="1" fold="1" page="1" pageScale="1" pageWidth="850" pageHeight="1100" math="0" shadow="0">
            <root>
                <mxCell id="0"/>
                <mxCell id="1" parent="0"/>
                <mxCell id="19" value="" style="rounded=1;whiteSpace=wrap;html=1;strokeWidth=2;fillColor=#FFFFCC;opacity=50;" vertex="1" parent="1">
                    <mxGeometry x="160" y="40" width="620" height="420" as="geometry"/>
                </mxCell>
                <mxCell id="3" value="" style="rounded=1;whiteSpace=wrap;html=1;strokeColor=light-dark(#000000, #446e2c);strokeWidth=2;fillColor=#E6FFCC;opacity=50;" vertex="1" parent="1">
                    <mxGeometry x="190" y="80" width="560" height="130" as="geometry"/>
                </mxCell>
                <mxCell id="4" value="" style="rounded=1;whiteSpace=wrap;html=1;strokeColor=#000000;strokeWidth=2;fillColor=#e1d5e7;opacity=50;" vertex="1" parent="1">
                    <mxGeometry x="190" y="250" width="560" height="200" as="geometry"/>
                </mxCell>
                <mxCell id="9" value="init(pid =1)" style="rounded=1;whiteSpace=wrap;html=1;strokeWidth=2;fillColor=#E5CCFF;fontSize=14;" vertex="1" parent="1">
                    <mxGeometry x="400" y="390" width="110" height="40" as="geometry"/>
                </mxCell>
                <mxCell id="10" value="native daemons" style="rounded=1;whiteSpace=wrap;html=1;strokeWidth=2;fillColor=#E5CCFF;fontSize=14;" vertex="1" parent="1">
                    <mxGeometry x="250" y="390" width="110" height="40" as="geometry"/>
                </mxCell>
                <mxCell id="11" value="" style="rounded=1;whiteSpace=wrap;html=1;strokeWidth=2;fillColor=#E5CCFF;fontSize=14;strokeColor=none;" vertex="1" parent="1">
                    <mxGeometry x="540" y="370" width="190" height="60" as="geometry"/>
                </mxCell>
                <mxCell id="12" value="ServiceManager" style="rounded=1;whiteSpace=wrap;html=1;strokeWidth=2;fillColor=#CC99FF;fontSize=14;" vertex="1" parent="1">
                    <mxGeometry x="550" y="390" width="110" height="30" as="geometry"/>
                </mxCell>
                <mxCell id="25" value="" style="rounded=1;whiteSpace=wrap;html=1;strokeColor=light-dark(#000000, #446e2c);strokeWidth=2;fillColor=light-dark(#92ac77, #0c2100);opacity=50;" vertex="1" parent="1">
                    <mxGeometry x="210" y="110" width="520" height="90" as="geometry"/>
                </mxCell>
                <mxCell id="13" value="Media Server" style="rounded=1;whiteSpace=wrap;html=1;strokeWidth=2;fillColor=#E5CCFF;fontSize=14;strokeColor=default;" vertex="1" parent="1">
                    <mxGeometry x="540" y="270" width="190" height="60" as="geometry"/>
                </mxCell>
                <mxCell id="14" value="JNI" style="rounded=0;whiteSpace=wrap;html=1;fillColor=#f5f5f5;fontColor=#333333;strokeColor=none;fontSize=15;" vertex="1" parent="1">
                    <mxGeometry x="200" y="220" width="540" height="20" as="geometry"/>
                </mxCell>
                <mxCell id="15" value="" style="endArrow=classic;html=1;entryX=0.5;entryY=1;entryDx=0;entryDy=0;" edge="1" parent="1" target="14">
                    <mxGeometry width="50" height="50" relative="1" as="geometry">
                        <mxPoint x="470" y="390" as="sourcePoint"/>
                        <mxPoint x="440" y="280" as="targetPoint"/>
                    </mxGeometry>
                </mxCell>
                <mxCell id="16" value="" style="endArrow=classic;html=1;entryX=0.5;entryY=1;entryDx=0;entryDy=0;" edge="1" parent="1" target="3">
                    <mxGeometry width="50" height="50" relative="1" as="geometry">
                        <mxPoint x="470" y="220" as="sourcePoint"/>
                        <mxPoint x="480" y="250" as="targetPoint"/>
                    </mxGeometry>
                </mxCell>
                <mxCell id="17" value="" style="endArrow=classic;html=1;entryX=1;entryY=0.5;entryDx=0;entryDy=0;" edge="1" parent="1" target="10">
                    <mxGeometry width="50" height="50" relative="1" as="geometry">
                        <mxPoint x="400" y="410" as="sourcePoint"/>
                        <mxPoint x="490" y="260" as="targetPoint"/>
                    </mxGeometry>
                </mxCell>
                <mxCell id="18" value="" style="curved=1;endArrow=classic;html=1;entryX=0;entryY=0.5;entryDx=0;entryDy=0;" edge="1" parent="1" target="13">
                    <mxGeometry width="50" height="50" relative="1" as="geometry">
                        <mxPoint x="470" y="390" as="sourcePoint"/>
                        <mxPoint x="440" y="280" as="targetPoint"/>
                        <Array as="points">
                            <mxPoint x="470" y="340"/>
                            <mxPoint x="490" y="300"/>
                        </Array>
                    </mxGeometry>
                </mxCell>
                <mxCell id="20" value="" style="endArrow=classic;html=1;exitX=0.5;exitY=0;exitDx=0;exitDy=0;" edge="1" parent="1" source="3">
                    <mxGeometry width="50" height="50" relative="1" as="geometry">
                        <mxPoint x="470" y="90" as="sourcePoint"/>
                        <mxPoint x="470" y="10" as="targetPoint"/>
                    </mxGeometry>
                </mxCell>
                <mxCell id="21" value="" style="endArrow=classic;html=1;entryX=0.623;entryY=1.013;entryDx=0;entryDy=0;entryPerimeter=0;" edge="1" parent="1" target="9">
                    <mxGeometry width="50" height="50" relative="1" as="geometry">
                        <mxPoint x="469" y="500" as="sourcePoint"/>
                        <mxPoint x="470" y="510" as="targetPoint"/>
                    </mxGeometry>
                </mxCell>
                <mxCell id="22" value="Framework" style="text;html=1;align=center;verticalAlign=middle;whiteSpace=wrap;rounded=0;fontStyle=1;fontSize=14;" vertex="1" parent="1">
                    <mxGeometry x="210" y="50" width="60" height="30" as="geometry"/>
                </mxCell>
                <mxCell id="23" value="Java Framework" style="text;html=1;align=center;verticalAlign=middle;whiteSpace=wrap;rounded=0;fontStyle=1;fontSize=14;" vertex="1" parent="1">
                    <mxGeometry x="190" y="80" width="140" height="30" as="geometry"/>
                </mxCell>
                <mxCell id="24" value="C++ Framework (native)" style="text;html=1;align=center;verticalAlign=middle;whiteSpace=wrap;rounded=0;fontStyle=1;fontSize=14;" vertex="1" parent="1">
                    <mxGeometry x="200" y="260" width="180" height="30" as="geometry"/>
                </mxCell>
                <mxCell id="5" value="ActivityManager" style="rounded=1;whiteSpace=wrap;html=1;strokeWidth=2;fillColor=#4D9900;opacity=50;" vertex="1" parent="1">
                    <mxGeometry x="220" y="140" width="110" height="45" as="geometry"/>
                </mxCell>
                <mxCell id="6" value="PowerManager" style="rounded=1;whiteSpace=wrap;html=1;strokeWidth=2;fillColor=#4D9900;opacity=50;" vertex="1" parent="1">
                    <mxGeometry x="350" y="140" width="110" height="45" as="geometry"/>
                </mxCell>
                <mxCell id="7" value="WindowManager" style="rounded=1;whiteSpace=wrap;html=1;strokeWidth=2;fillColor=#4D9900;opacity=50;" vertex="1" parent="1">
                    <mxGeometry x="480" y="140" width="110" height="45" as="geometry"/>
                </mxCell>
                <mxCell id="8" value="InputManager" style="rounded=1;whiteSpace=wrap;html=1;strokeWidth=2;fillColor=#4D9900;opacity=50;" vertex="1" parent="1">
                    <mxGeometry x="610" y="140" width="110" height="45" as="geometry"/>
                </mxCell>
                <mxCell id="26" value="System Server" style="text;html=1;align=center;verticalAlign=middle;whiteSpace=wrap;rounded=0;fontStyle=1;fontSize=14;" vertex="1" parent="1">
                    <mxGeometry x="400" y="110" width="140" height="30" as="geometry"/>
                </mxCell>
                <mxCell id="27" value="" style="endArrow=classic;html=1;exitX=1;exitY=0.5;exitDx=0;exitDy=0;" edge="1" parent="1" source="9">
                    <mxGeometry width="50" height="50" relative="1" as="geometry">
                        <mxPoint x="479" y="510" as="sourcePoint"/>
                        <mxPoint x="540" y="410" as="targetPoint"/>
                        <Array as="points">
                            <mxPoint x="540" y="410"/>
                        </Array>
                    </mxGeometry>
                </mxCell>
            </root>
        </mxGraphModel>
    </diagram>
</mxfile>